<?xml version="1.0" standalone="no"?>
<!DOCTYPE svg PUBLIC "-//W3C//DTD SVG 20010904//EN"
 "http://www.w3.org/TR/2001/REC-SVG-20010904/DTD/svg10.dtd">
<svg version="1.0" xmlns="http://www.w3.org/2000/svg"
 width="512.000000pt" height="512.000000pt" viewBox="0 0 512.000000 512.000000"
 preserveAspectRatio="xMidYMid meet">

<g transform="translate(0.000000,512.000000) scale(0.100000,-0.100000)"
fill="#000000" stroke="none">
<path d="M2615 5109 c-761 -77 -1426 -524 -1792 -1204 l-48 -90 -65 0 c-123 0
-137 -10 -407 -278 -304 -302 -298 -292 -298 -517 1 -166 14 -260 62 -425 39
-137 112 -314 135 -326 33 -17 79 -7 102 24 l21 28 -24 62 c-104 273 -138 408
-148 588 -10 200 -18 186 240 446 121 122 236 230 255 239 45 21 121 13 163
-17 17 -12 132 -157 256 -322 172 -229 226 -308 226 -330 0 -23 -28 -57 -160
-190 -89 -89 -166 -172 -173 -185 -6 -13 -11 -46 -12 -73 0 -43 7 -62 47 -127
261 -422 683 -881 1112 -1204 97 -74 316 -223 362 -247 29 -16 113 -16 143 -1
13 7 96 84 185 173 133 132 167 160 190 160 22 0 101 -54 331 -227 181 -135
311 -240 322 -259 28 -45 35 -92 21 -140 -10 -35 -51 -81 -239 -268 -266 -265
-250 -257 -451 -246 -198 11 -396 64 -630 170 -373 169 -862 516 -1191 847
-215 216 -495 577 -663 856 -21 34 -44 65 -53 68 -50 19 -104 -16 -104 -68 0
-74 321 -527 581 -821 314 -355 810 -737 1250 -963 425 -218 887 -302 1094
-200 23 12 139 119 277 256 268 266 281 285 282 407 l1 70 90 48 c651 351
1076 955 1192 1692 21 137 24 487 5 620 -43 302 -143 595 -285 839 -121 208
-270 396 -314 396 -12 0 -34 -11 -49 -23 -45 -39 -38 -71 41 -168 218 -267
376 -610 439 -953 112 -604 -48 -1236 -434 -1721 -174 -218 -441 -437 -672
-551 l-77 -38 -43 40 c-24 21 -58 50 -77 64 l-33 25 103 52 c201 100 366 221
530 389 272 280 431 583 516 981 26 120 27 144 27 373 0 229 -1 253 -27 375
-69 324 -200 605 -395 846 -83 102 -270 281 -371 353 -237 169 -520 290 -806
342 -120 22 -436 30 -563 14 -368 -45 -709 -189 -995 -419 -42 -35 -82 -71
-87 -81 -17 -31 -11 -65 13 -88 39 -36 67 -28 159 45 270 215 557 341 888 389
159 23 441 15 594 -15 238 -48 508 -164 695 -298 407 -293 681 -751 741 -1243
13 -109 13 -331 0 -440 -35 -283 -151 -584 -318 -820 -86 -122 -300 -336 -422
-422 -98 -69 -259 -158 -366 -201 l-61 -24 -177 132 c-97 73 -191 139 -208
146 -42 17 -124 16 -170 -4 -23 -10 -94 -74 -189 -171 -84 -86 -159 -156 -169
-156 -9 0 -68 34 -131 77 -479 320 -909 748 -1226 1223 -39 58 -75 115 -81
126 -10 20 3 36 149 179 100 97 167 171 176 193 20 46 21 128 4 170 -7 17 -73
111 -146 209 l-133 177 20 51 c38 96 139 281 203 370 75 104 83 140 39 174
-36 28 -66 26 -99 -6 -45 -46 -161 -226 -217 -339 l-53 -106 -25 33 c-14 19
-43 53 -64 77 l-40 43 38 77 c82 166 224 360 376 513 589 592 1472 786 2257
493 189 -70 424 -203 573 -323 35 -28 75 -54 88 -58 52 -13 100 38 86 92 -11
46 -248 215 -444 318 -209 110 -468 194 -710 232 -125 19 -439 27 -565 14z"/>
<path d="M1875 3337 c-90 -30 -145 -76 -184 -155 -32 -63 -31 -110 3 -139 15
-12 35 -23 45 -23 30 0 67 36 80 79 12 41 54 82 99 96 62 19 153 -35 171 -102
20 -71 -19 -142 -259 -468 -71 -97 -132 -184 -135 -194 -10 -32 13 -71 51 -87
29 -12 79 -14 266 -12 228 3 230 3 249 27 25 30 24 72 -1 99 -20 21 -29 22
-185 22 l-164 0 131 183 c137 190 182 270 197 350 23 123 -50 258 -166 309
-57 25 -146 32 -198 15z"/>
<path d="M2664 3321 c-39 -24 -66 -59 -140 -186 -142 -244 -254 -452 -254
-473 0 -13 11 -34 25 -47 24 -25 26 -25 210 -25 l185 0 0 -90 c0 -95 14 -142
45 -154 32 -12 62 -6 83 17 18 19 22 36 24 122 l3 99 33 7 c47 9 72 36 72 75
0 41 -32 74 -72 74 l-28 0 0 233 c0 127 -5 249 -10 269 -14 49 -71 98 -113 98
-18 0 -46 -9 -63 -19z m36 -391 l0 -190 -110 0 c-60 0 -110 3 -110 7 0 14 207
373 215 373 3 0 5 -85 5 -190z"/>
<path d="M3423 3325 c-15 -10 -75 -151 -197 -458 -97 -244 -176 -453 -176
-466 0 -29 43 -71 73 -71 14 0 34 8 45 18 22 18 372 888 372 923 0 27 -44 69
-72 69 -13 0 -33 -7 -45 -15z"/>
<path d="M3705 3315 c-30 -29 -32 -64 -6 -96 19 -23 24 -24 214 -29 l194 -5
-163 -370 c-99 -224 -163 -383 -164 -402 0 -59 67 -95 113 -60 20 14 407 887
407 918 0 11 -11 31 -25 44 l-24 25 -261 0 -261 0 -24 -25z"/>
</g>
</svg>
