<?xml version="1.0" standalone="no"?>
<!DOCTYPE svg PUBLIC "-//W3C//DTD SVG 20010904//EN"
 "http://www.w3.org/TR/2001/REC-SVG-20010904/DTD/svg10.dtd">
<svg version="1.0" xmlns="http://www.w3.org/2000/svg"
 width="512.000000pt" height="512.000000pt" viewBox="0 0 512.000000 512.000000"
 preserveAspectRatio="xMidYMid meet">

<g transform="translate(0.000000,512.000000) scale(0.100000,-0.100000)"
fill="#000000" stroke="none">
<path d="M2394 5110 c-364 -39 -708 -203 -969 -465 -312 -311 -476 -710 -476
-1154 0 -397 125 -794 390 -1240 39 -66 168 -260 187 -282 8 -8 14 -18 14 -22
0 -3 -171 -8 -380 -9 -330 -3 -381 -5 -395 -19 -24 -24 -525 -1243 -525 -1278
0 -57 68 -91 113 -56 10 7 36 55 57 107 l39 93 256 3 255 2 -15 -37 c-9 -21
-69 -165 -133 -321 l-116 -282 -254 0 c-199 0 -253 3 -249 13 3 6 22 54 42
106 30 74 36 99 29 119 -13 37 -55 59 -91 47 -32 -11 -53 -49 -128 -236 -54
-131 -54 -161 -5 -186 20 -10 532 -12 2533 -10 l2509 2 19 24 c10 13 19 32 19
42 0 28 -745 1829 -765 1848 -14 14 -63 16 -395 19 -209 1 -380 6 -380 9 0 4
6 14 14 22 19 22 148 216 187 282 265 446 390 843 390 1240 0 444 -164 843
-476 1154 -344 344 -823 515 -1301 465z m307 -150 c476 -49 888 -317 1128
-735 189 -330 241 -714 149 -1115 -106 -468 -391 -964 -845 -1471 -163 -183
-545 -549 -573 -549 -35 0 -514 472 -675 665 -455 544 -706 1038 -775 1523
-16 116 -14 329 4 442 115 713 708 1232 1427 1249 31 0 103 -4 160 -9z m-1336
-3187 c-3 -10 -45 -111 -92 -225 l-86 -208 -254 0 c-146 0 -253 4 -251 9 2 5
43 106 92 225 l90 216 254 0 c238 0 254 -1 247 -17z m401 -110 c208 -246 674
-698 765 -742 42 -21 63 -8 233 142 l144 127 436 0 c423 0 437 1 456 20 27 27
26 81 -1 106 -20 18 -43 19 -381 22 l-360 3 88 92 c49 51 140 152 203 225
l113 132 397 0 397 0 90 -216 c49 -119 90 -220 92 -224 2 -5 -91 -10 -207 -12
-201 -3 -211 -4 -232 -25 -14 -14 -22 -33 -21 -54 2 -62 7 -63 279 -69 l247
-5 52 -122 52 -123 -782 0 c-851 0 -816 2 -830 -56 -4 -14 -4 -34 -1 -44 3
-10 178 -169 388 -352 l381 -333 -217 -3 -217 -2 -771 656 c-425 361 -784 662
-800 667 -38 15 -72 -2 -92 -45 -11 -24 -493 -1187 -524 -1265 -4 -10 -42 -13
-144 -13 -76 0 -139 1 -139 3 0 2 62 154 138 338 76 184 142 347 146 362 5 23
1 33 -23 57 l-29 30 -290 0 -290 0 52 123 52 122 325 3 c323 2 326 2 346 25
11 12 69 141 128 287 60 146 113 271 118 278 6 7 33 12 67 12 l58 0 108 -127z
m669 -948 l658 -560 -452 -3 c-249 -1 -652 -1 -896 0 l-443 3 231 562 c128
310 235 562 238 560 3 -1 302 -254 664 -562z m2366 -244 c71 -172 129 -315
129 -317 0 -2 -210 -4 -467 -4 l-468 1 -360 315 c-198 174 -362 318 -364 320
-3 2 312 3 698 2 l702 -3 130 -314z"/>
<path d="M2476 4180 c-115 -14 -250 -67 -307 -121 -36 -34 -38 -77 -6 -107 32
-31 55 -28 144 18 97 49 154 62 263 62 106 -1 196 -27 279 -83 294 -196 334
-593 85 -842 -254 -254 -680 -188 -848 132 -77 146 -84 287 -25 457 l33 94
-20 27 c-26 35 -77 43 -105 17 -24 -22 -54 -87 -76 -168 -12 -42 -17 -98 -17
-181 1 -102 5 -132 27 -200 37 -113 90 -198 177 -286 126 -127 300 -199 480
-199 298 0 565 197 655 484 55 172 41 346 -40 511 -73 151 -171 248 -320 320
-125 60 -246 81 -379 65z"/>
</g>
</svg>
